<svg xmlns="http://www.w3.org/2000/svg" width="59" height="59" viewBox="0 0 59 59"><g id="ic_dev" transform="translate(7399 -5371)"><g id="Group_2606" data-name="Group 2606" transform="translate(-7399.394 5366)"><rect id="Rectangle_664" data-name="Rectangle 664" width="59" height="59" rx="6" transform="translate(0.394 5)" fill="#5cbd2c" opacity="0.15"></rect></g><g id="mobile-app" transform="translate(-7390 5380)"><path id="Path_18609" data-name="Path 18609" d="M41.824,22.071a9.23,9.23,0,0,0-7.243-9V4.292A3.3,3.3,0,0,0,31.289,1H14.169a3.3,3.3,0,0,0-3.292,3.292v7.243H7.07l-.4,1.591-1.405-.843L1.747,15.8l.843,1.406-1.59.4v4.979l1.591.4-.844,1.406,3.521,3.52,1.405-.843.4,1.59h3.807v9.877a3.3,3.3,0,0,0,3.292,3.292h17.12a3.3,3.3,0,0,0,3.292-3.292V31.07a9.23,9.23,0,0,0,7.243-9Zm-1.317,0a7.843,7.843,0,0,1-.859,3.565,3.285,3.285,0,0,0-2.293-2.068l-2.774-.694v-.157A3.3,3.3,0,0,0,35.9,20.1V18.779a3.292,3.292,0,0,0-3.585-3.28,3.387,3.387,0,0,0-3,3.415V20.1a3.3,3.3,0,0,0,1.317,2.62v.157l-2.774.694a3.285,3.285,0,0,0-2.293,2.068,7.9,7.9,0,1,1,14.944-3.564Zm-9.877-9a9.143,9.143,0,0,0-1.317.4V11.535H16.144v9.218h7.348A9.129,9.129,0,0,0,30.631,31.07v1.536h-15.8V10.218h15.8Zm-6.855,6.366H17.461V12.852H28V14.1A9.25,9.25,0,0,0,23.776,19.437ZM14.169,2.317h17.12a1.978,1.978,0,0,1,1.975,1.975V6.268H12.194V4.292A1.978,1.978,0,0,1,14.169,2.317ZM10.877,23.106a3.292,3.292,0,1,1,0-6.021ZM8.1,27.338l-.321-1.283L7.644,25.7,6.893,25.4l-1.421.853L3.405,24.184l.853-1.422-.329-.8-1.613-.4V18.634l1.611-.4.331-.8-.853-1.422L5.472,13.94l1.421.853.8-.327.4-1.615h2.778v2.835a4.609,4.609,0,1,0,0,8.817v2.835Zm23.19,13.169H14.169a1.978,1.978,0,0,1-1.975-1.975V36.557H33.264v1.975A1.978,1.978,0,0,1,31.289,40.507Zm1.975-5.268H12.194V7.585H33.264v5.3c-.219-.016-.436-.034-.658-.034s-.44.018-.658.034V8.9H13.511V33.923H31.947V31.255c.219.016.436.034.658.034s.44-.018.658-.034Zm-.658-5.268A7.879,7.879,0,0,1,26.68,27.28v-.519a1.974,1.974,0,0,1,1.5-1.917l3.772-.942V21.985l-.327-.19a1.954,1.954,0,0,1-.99-1.7V18.915a2.063,2.063,0,0,1,1.8-2.1,1.975,1.975,0,0,1,2.154,1.967V20.1a1.954,1.954,0,0,1-.99,1.7l-.327.19V23.9l3.772.942a1.974,1.974,0,0,1,1.5,1.917v.519A7.879,7.879,0,0,1,32.606,29.972Z" transform="translate(-1 -1)" fill="#5cbd2c"></path><path id="Path_18613" data-name="Path 18613" d="M44,57h1.317v1.317H44Z" transform="translate(-22.954 -20.126)" fill="#5cbd2c"></path><path id="Path_18615" data-name="Path 18615" d="M24,33h5.926v1.317H24Z" transform="translate(-8.856 -11.929)" fill="#5cbd2c"></path><path id="Path_18616" data-name="Path 18616" d="M24,37h5.926v1.317H24Z" transform="translate(-8.856 -13.296)" fill="#5cbd2c"></path><path id="Path_18617" data-name="Path 18617" d="M24,41h5.926v1.317H24Z" transform="translate(-8.856 -14.662)" fill="#5cbd2c"></path><path id="Path_18618" data-name="Path 18618" d="M24,45h5.926v1.317H24Z" transform="translate(-8.856 -16.028)" fill="#5cbd2c"></path><path id="Path_18619" data-name="Path 18619" d="M55.975,14.218a1.971,1.971,0,0,0,.658-3.83V5H55.317v5.389a1.971,1.971,0,0,0,.658,3.83Zm0-2.634a.658.658,0,1,1-.658.658A.659.659,0,0,1,55.975,11.585Z" transform="translate(-19.102 -2.366)" fill="#5cbd2c"></path><path id="Path_18620" data-name="Path 18620" d="M56,1h1.317V2.317H56Z" transform="translate(-19.785 -1)" fill="#5cbd2c"></path><path id="Path_18621" data-name="Path 18621" d="M9.975,45a1.971,1.971,0,0,0-.658,3.83v5.389h1.317V48.83A1.971,1.971,0,0,0,9.975,45Zm0,2.634a.658.658,0,1,1,.658-.658A.659.659,0,0,1,9.975,47.634Z" transform="translate(-3.391 -16.028)" fill="#5cbd2c"></path><path id="Path_18622" data-name="Path 18622" d="M10,61h1.317v1.317H10Z" transform="translate(-4.074 -21.493)" fill="#5cbd2c"></path></g></g></svg>