<svg xmlns="http://www.w3.org/2000/svg" width="59" height="59" viewBox="0 0 59 59"><g id="ic_consultation-services" transform="translate(7415 -5321)"><g id="ic_dev" transform="translate(-16 -50)"><g id="Group_2606" data-name="Group 2606" transform="translate(-7399.394 5366)"><rect id="Rectangle_664" data-name="Rectangle 664" width="59" height="59" rx="6" transform="translate(0.394 5)" fill="#7142f8" opacity="0.15"></rect></g></g><g id="Consult-Talk" transform="translate(-7407 5329.32)"><rect id="Rectangle_711" data-name="Rectangle 711" width="1.279" height="1.279" transform="translate(10.951 16.589)" fill="#7142f8"></rect><rect id="Rectangle_712" data-name="Rectangle 712" width="1.279" height="1.279" transform="translate(17.344 16.589)" fill="#7142f8"></rect><path id="Path_18911" data-name="Path 18911" d="M39.812,23.629l-2.5-.357a8.951,8.951,0,0,0-.42-1.023l1.511-2.015a.639.639,0,0,0-.059-.836l-2.713-2.713a.632.632,0,0,0-.387-.181V10.35a5.115,5.115,0,0,0,1.918-3.99A5.062,5.062,0,0,0,34.24,1.741a.639.639,0,0,0-.912.578V5.9l-1.279.426L30.77,5.9V2.319a.639.639,0,0,0-.912-.575A5.062,5.062,0,0,0,26.934,6.36a5.115,5.115,0,0,0,1.918,3.99v4.321H26.934a.639.639,0,0,0-.633.549l-.414,2.9,1.266.181.335-2.346h2.727l.335,2.346a.639.639,0,0,0,.454.523,7.633,7.633,0,0,1,1.534.631.639.639,0,0,0,.691-.049l1.893-1.419,1.928,1.928L35.629,21.8a.639.639,0,0,0-.049.691,7.633,7.633,0,0,1,.631,1.534.639.639,0,0,0,.523.454l2.346.335v2.727l-2.346.335a.639.639,0,0,0-.523.454,7.633,7.633,0,0,1-.631,1.534.639.639,0,0,0,.049.691l1.419,1.893L35.12,34.381l-1.892-1.424a.639.639,0,0,0-.691-.049A7.633,7.633,0,0,1,31,33.538a.639.639,0,0,0-.454.523l-.333,2.348H27.573v-2.7a7.1,7.1,0,0,0-.288-2A5.824,5.824,0,1,0,23.2,27.195l-.045-.02-5.169-2.068v-.983a7.09,7.09,0,0,0,2.224-1.781h1.612a1.918,1.918,0,0,0,1.918-1.918v-1.4a1.918,1.918,0,0,0,1.279-1.8V15.311a1.918,1.918,0,0,0-1.279-1.8v-.757a8.951,8.951,0,1,0-17.9,0v.757a1.918,1.918,0,0,0-1.279,1.8v1.918a1.918,1.918,0,0,0,1.918,1.918H7.754c.041,0,.081-.006.121-.009a7.047,7.047,0,0,0,3.715,4.987v.983L6.421,27.175A7,7,0,0,0,2,33.705v5.9a.639.639,0,0,0,.639.639H26.934a.639.639,0,0,0,.639-.639V37.688h3.2a.639.639,0,0,0,.633-.549l.357-2.5a8.951,8.951,0,0,0,1.023-.42L34.8,35.732a.639.639,0,0,0,.836-.059l2.713-2.713a.639.639,0,0,0,.059-.836l-1.511-2.015a8.953,8.953,0,0,0,.42-1.023l2.5-.357a.639.639,0,0,0,.548-.632V24.261a.639.639,0,0,0-.549-.633Zm-7.033-5.491c-.03-.015-.064-.024-.094-.038V10.2H31.409v5.07L31.4,15.22a.639.639,0,0,0-.633-.549h-.639V10.03a.639.639,0,0,0-.274-.525A3.836,3.836,0,0,1,29.491,3.5V6.36a.639.639,0,0,0,.437.607l1.918.639a.639.639,0,0,0,.4,0l1.918-.639a.639.639,0,0,0,.437-.607V3.5a3.836,3.836,0,0,1-.365,6.01.639.639,0,0,0-.274.523v7.22Zm-8.4,8.042a4.507,4.507,0,1,1,2.131,3.8,6.979,6.979,0,0,0-1.669-1.839,4.37,4.37,0,0,1-.462-1.959Zm-2.557-5.115h-.776a6.969,6.969,0,0,0,.655-1.927c.04,0,.08.009.121.009h.639v1.279A.639.639,0,0,1,21.819,21.065Zm-1.279-7.033a1.928,1.928,0,0,1-1.534-.767L17.856,11.73a.639.639,0,0,0-.431-.251.646.646,0,0,0-.48.135L14.8,13.329a3.208,3.208,0,0,1-1.994.7H9.033v-.639a5.754,5.754,0,1,1,11.508,0Zm3.2,3.2a.639.639,0,0,1-.639.639H21.819v-3.2H23.1a.639.639,0,0,1,.639.639ZM14.787,5.081a7.68,7.68,0,0,1,7.672,7.672v.639h-.639a7.033,7.033,0,1,0-14.065,0H7.115v-.639a7.68,7.68,0,0,1,7.672-7.672ZM6.475,17.868a.639.639,0,0,1-.639-.639V15.311a.639.639,0,0,1,.639-.639H7.754v3.2Zm2.557,0V15.311H12.8a4.491,4.491,0,0,0,2.8-.981l1.631-1.3.753,1.007a3.213,3.213,0,0,0,2.557,1.279v2.557a5.72,5.72,0,0,1-.973,3.2H14.787v1.279H18.4a5.748,5.748,0,0,1-9.362-4.475ZM14.787,24.9a7.011,7.011,0,0,0,1.918-.272v.912a1.918,1.918,0,0,1-3.836,0v-.912a7.011,7.011,0,0,0,1.918.272ZM26.295,38.966H22.459V31.934H21.18v7.033H8.393V31.934H7.115v7.033H3.279V33.705A5.727,5.727,0,0,1,6.9,28.362l4.835-1.934a3.176,3.176,0,0,0,6.111,0l4.835,1.934a5.727,5.727,0,0,1,3.617,5.343Z" transform="translate(0 0)" fill="#7142f8"></path><rect id="Rectangle_713" data-name="Rectangle 713" width="1.279" height="1.279" transform="translate(28.213 17.229)" fill="#7142f8"></rect><rect id="Rectangle_714" data-name="Rectangle 714" width="1.279" height="1.279" transform="translate(28.213 33.852)" fill="#7142f8"></rect><rect id="Rectangle_715" data-name="Rectangle 715" width="1.279" height="1.279" transform="translate(33.825 32.057) rotate(-45)" fill="#7142f8"></rect><rect id="Rectangle_716" data-name="Rectangle 716" width="1.279" height="1.279" transform="translate(36.524 25.54)" fill="#7142f8"></rect><rect id="Rectangle_717" data-name="Rectangle 717" width="1.279" height="1.279" transform="translate(33.825 20.303) rotate(-45)" fill="#7142f8"></rect></g></g></svg>