<svg xmlns="http://www.w3.org/2000/svg" width="59" height="59" viewBox="0 0 59 59"><g id="ic_support" transform="translate(1894 3495)"><g id="Group_2776" data-name="Group 2776" transform="translate(-1894.212 -3500)"><rect id="Rectangle_664" data-name="Rectangle 664" width="59" height="59" rx="6" transform="translate(0.212 5)" fill="#ecbf24" opacity="0.2"></rect></g><g id="Group_2777" data-name="Group 2777" transform="translate(-1884 -3486)"><g id="Group_2650" data-name="Group 2650" transform="translate(0 0)"><g id="Group_2647" data-name="Group 2647" transform="translate(0 7.551)"><path id="Path_18624" data-name="Path 18624" d="M-785.238,88.472c-.325-.271-.7-.482-1.016-.763a.579.579,0,0,0-.739-.084c-.488.235-1,.419-1.487.655a.58.58,0,0,0-.272.358c-.094.448-.146.906-.214,1.36-.061.411-.252.643-.714.621-.566-.027-1.136-.025-1.7,0-.442.019-.619-.217-.683-.6a11.082,11.082,0,0,1-.192-1.313c-.014-.312-.169-.388-.415-.48-.476-.178-.926-.427-1.406-.593a1.192,1.192,0,0,0-.641.04,1.3,1.3,0,0,0-.372.259c-1.366,1.008-.789.927-2.12-.126a1.224,1.224,0,0,1-.11-.109c-1.078-1.1-1.009-.728-.139-1.988a1.8,1.8,0,0,1,.173-.191.724.724,0,0,0,.064-1.1,2.179,2.179,0,0,1-.418-.978c-.084-.495-.389-.621-.8-.667-.34-.037-.681-.066-1.017-.121a.679.679,0,0,1-.653-.712c0-.5,0-1,0-1.5,0-.588.18-.8.748-.894a10.1,10.1,0,0,0,1.2-.209.9.9,0,0,0,.486-.408,11.331,11.331,0,0,0,.624-1.445.678.678,0,0,0-.068-.521c-.265-.414-.569-.8-.87-1.194a.423.423,0,0,1,.046-.629c.486-.487.974-.972,1.458-1.46a.419.419,0,0,1,.665-.025,1.946,1.946,0,0,0,2.713.467c.626-.372.938-.665.956-1.359a1.921,1.921,0,0,1,.253-.96c.275-.423,2.414-.488,2.695-.067a2.471,2.471,0,0,1,.329,1.146c.05.637.207,1.109.942,1.207a1.428,1.428,0,0,1,.745.315c.483.445.815.144,1.174-.153.131-.108.263-.215.4-.314C-784.846,73.386-784.934,88.726-785.238,88.472Zm.465-10.322c-.572-.763.719-2.758-.009-3.373a.6.6,0,0,0-.135-.053c-.407.293-.845.584-1.256.911a.67.67,0,0,1-.793.043c-.7-.315-1.4-.627-2.12-.883a.945.945,0,0,1-.7-.79,6.8,6.8,0,0,1-.109-.965c-.007-.375-.157-.49-.533-.5-.471-.012-.77.054-.722.625a4.553,4.553,0,0,1-.089.711.948.948,0,0,1-.783.94,3.616,3.616,0,0,0-1.336.491,1.461,1.461,0,0,1-2.243-.233c-.433-.466-.682-.167-1.009.131-.365.334-.115.517.093.757.189.218.327.48.517.7a.725.725,0,0,1,.041.926,14.713,14.713,0,0,0-.834,2.082.756.756,0,0,1-.688.626c-.485.063-.967.15-1.458.228V81.6c.327.045.635.066.931.134.459.106.975.051,1.174.7.237.776.622,1.5.911,2.266a.75.75,0,0,1-.023.575,8.971,8.971,0,0,1-.814,1.112c-.355.425.133.513.278.723s.3.37.586.121c.306-.268.682-.456.988-.723s.6-.189.933-.038c.665.3,1.333.609,2.024.843a.962.962,0,0,1,.7.843,7.541,7.541,0,0,1,.106.969c.009.338.16.435.482.435.731,0,.732.016.754-.734.005-.172,0-.344.005-.516a.9.9,0,0,1,.737-.952,15.351,15.351,0,0,0,2.022-.85c.3-.142.542-.241.839.021s.659.432.945.7.447-1.493.215-1.788a.679.679,0,0,1-.064-.8C-784.867,83.924-784.469,78.556-784.773,78.15Z" transform="translate(800.115 -71.461)" fill="#ecbf24" stroke="#ecbf24" stroke-width="0.2"></path><path id="Path_18628" data-name="Path 18628" d="M-748.9,117.934a4.784,4.784,0,0,1,4.711,4.826,4.754,4.754,0,0,1-4.815,4.766,4.731,4.731,0,0,1-4.74-4.809A4.834,4.834,0,0,1-748.9,117.934Zm3.684,4.853a3.634,3.634,0,0,0-3.621-3.734,3.725,3.725,0,0,0-3.8,3.707,3.722,3.722,0,0,0,3.737,3.73A3.669,3.669,0,0,0-745.218,122.787Z" transform="translate(758.533 -113.137)" fill="#ecbf24" stroke="#ecbf24" stroke-width="0.2"></path></g><g id="web-maintenance" transform="translate(17.627 12.696)"><g id="Group_2644" data-name="Group 2644" transform="translate(10.803 10.981)"><g id="Group_2640" data-name="Group 2640" transform="translate(0)"><path id="Path_18637" data-name="Path 18637" d="M327,374.924l-1.87.488-.512,1.863,1.358,1.375,1.87-.488.512-1.863Zm.118,2.5-.868.227-.63-.638.238-.865.868-.227.63.638Z" transform="translate(-324.622 -374.924)" fill="#ecbf24"></path></g></g><g id="Group_2645" data-name="Group 2645" transform="translate(0)"><g id="Group_2642" data-name="Group 2642" transform="translate(0)"><path id="Path_18638" data-name="Path 18638" d="M156.24,200.352h-.022a3.374,3.374,0,0,0-.83.1l-1.614-1.634,2.245-2.217,1.471-.284,2.485-2.454-2.965-3-2.485,2.454-.3,1.467L151.977,197l-1.616-1.637a3.355,3.355,0,0,0-4.347-4.039l-.67.234,1.534,1.554-.381.75-.755.371-1.534-1.553-.242.667a3.374,3.374,0,0,0,.766,3.505,3.334,3.334,0,0,0,2.367,1h.022a3.374,3.374,0,0,0,.83-.1l1.03,1.043-5.43,5.361-.006.959,2.012,2.038.959.006,5.43-5.361,1.03,1.043a3.374,3.374,0,0,0-.114.85,3.356,3.356,0,1,0,3.378-3.335Zm-.892-6.588L157,192.131l1.705,1.727-1.654,1.633-1.1.213-.83-.841Zm-.719,1.877.538.544-2.023,2-.538-.544Zm-7.508,1.312H147.1a2.444,2.444,0,0,1-1.735-.731,2.472,2.472,0,0,1-.707-1.8l.895.906,1.6-.789.809-1.593-.895-.906a2.459,2.459,0,1,1,.046,4.918Zm4.086,4.309-5.057,4.993h-.216l-.43-.436,3.524-3.479-.63-.638-3.524,3.479-.43-.436v-.216l5.057-4.993h.216l1.49,1.509Zm.9-.582-2.012-2.038h0l-1.251-1.268a3.366,3.366,0,0,0,1.135-1.122l4.516,4.574a3.387,3.387,0,0,0-1.136,1.121Zm5.839,4.778a2.459,2.459,0,1,1,.022-3.479A2.463,2.463,0,0,1,157.946,205.458Z" transform="translate(-143.545 -190.863)" fill="#ecbf24"></path></g></g></g><g id="podcast" transform="translate(14.34)"><path id="Path_18629" data-name="Path 18629" d="M19.785,0H3.371A3.374,3.374,0,0,0,0,3.37V37.563a3.374,3.374,0,0,0,3.37,3.37H19.785a3.374,3.374,0,0,0,3.37-3.37V3.37A3.374,3.374,0,0,0,19.785,0ZM3.371,1.364H19.785A2.008,2.008,0,0,1,21.79,3.37v.723H1.365V3.37A2.008,2.008,0,0,1,3.371,1.364Zm18.42,4.093V34.111H1.365V5.458ZM19.785,39.569H3.371a2.008,2.008,0,0,1-2.006-2.006V35.475H21.791v2.088a2.008,2.008,0,0,1-2.006,2.006Zm0,0" transform="translate(-0.001)" fill="#ecbf24"></path><path id="Path_18630" data-name="Path 18630" d="M127.52,432h1.364v1.364H127.52Zm0,0" transform="translate(-116.645 -395.16)" fill="#ecbf24"></path></g><g id="Group_2649" data-name="Group 2649" transform="translate(8.146 28.988)"><path id="Path_18621" data-name="Path 18621" d="M9.622,45a1.618,1.618,0,0,0-.541,3.144v4.424h1.081V48.144A1.618,1.618,0,0,0,9.622,45Zm0,2.162a.541.541,0,1,1,.541-.541A.541.541,0,0,1,9.622,47.162Z" transform="translate(-8 -45)" fill="#ecbf24"></path><path id="Path_18622" data-name="Path 18622" d="M10,61h1.081v1.081H10Z" transform="translate(-8.919 -52.351)" fill="#ecbf24"></path></g></g></g></g></svg>