<svg xmlns="http://www.w3.org/2000/svg" width="60" height="59" viewBox="0 0 60 59"><g id="ic_flutter-uiux-app-design" transform="translate(7049 -5721)"><rect id="Rectangle_664" data-name="Rectangle 664" width="60" height="59" rx="6" transform="translate(-7049 5721)" fill="#fa4c9a" opacity="0.15"></rect><g id="ui" transform="translate(-7040 5730)"><path id="Path_18596" data-name="Path 18596" d="M139.344,368h-1.372v2.745H125.62v1.372h12.352v2.059a2.059,2.059,0,0,1-2.059,2.059h-15.1a2.066,2.066,0,0,1-1.784-1.029l-1.188.686a3.445,3.445,0,0,0,2.973,1.716h15.1a3.435,3.435,0,0,0,3.431-3.431Zm0,0" transform="translate(-107.778 -336.434)" fill="#fa4c9a"></path><path id="Path_18597" data-name="Path 18597" d="M232.5,432h1.372v1.372H232.5Zm0,0" transform="translate(-212.6 -394.944)" fill="#fa4c9a"></path><path id="Path_18598" data-name="Path 18598" d="M46.459,18.528V17.156H44.365a8.922,8.922,0,0,0-8.2-8.2V6.862H34.793V8.956a8.919,8.919,0,0,0-1.372.214V5.49H44.4V4.117H33.421V3.431a2.059,2.059,0,0,1,2.059-2.059h15.1a2.058,2.058,0,0,1,1.361.515L52.846.858A3.427,3.427,0,0,0,50.576,0h-15.1a3.435,3.435,0,0,0-3.431,3.431V9.607a8.933,8.933,0,0,0-5.455,7.548H24.5v1.372h2.1a8.881,8.881,0,0,0,8.2,8.2v2.09h1.372v-2.09a8.881,8.881,0,0,0,8.2-8.2Zm-11.666,5.49v1.341a7.52,7.52,0,0,1-2.745-.792V23.332a3.431,3.431,0,1,1,6.862,0v1.235a7.527,7.527,0,0,1-2.745.794V24.018Zm-1.372-7.548a2.059,2.059,0,1,1,2.059,2.059A2.059,2.059,0,0,1,33.421,16.469Zm7.091,7c-.074.068-.153.123-.229.187v-.324a4.8,4.8,0,0,0-2.593-4.26,3.431,3.431,0,1,0-4.421,0,4.8,4.8,0,0,0-2.593,4.26v.327c-.076-.062-.155-.121-.229-.187a7.552,7.552,0,0,1-2.48-4.944H29.3V17.156H27.966a7.556,7.556,0,0,1,6.827-6.827v1.338h1.372V10.328a7.556,7.556,0,0,1,6.827,6.827H41.655v1.372h1.336a7.552,7.552,0,0,1-2.48,4.944Zm0,0" transform="translate(-22.441 0)" fill="#fa4c9a"></path><path id="Path_18599" data-name="Path 18599" d="M288.283,41.607a.686.686,0,0,0,.686-.686V32.686a.686.686,0,0,0-.686-.686h-15.1a.686.686,0,0,0-.686.686v8.235a.686.686,0,0,0,.686.686Zm-14.411-8.235H287.6v6.862H273.872Zm0,0" transform="translate(-249.168 -29.255)" fill="#fa4c9a"></path><path id="Path_18600" data-name="Path 18600" d="M304.5,64h2.745v1.372H304.5Zm0,0" transform="translate(-278.424 -58.51)" fill="#fa4c9a"></path><path id="Path_18601" data-name="Path 18601" d="M352.5,64h6.862v1.372H352.5Zm0,0" transform="translate(-322.306 -58.51)" fill="#fa4c9a"></path><path id="Path_18602" data-name="Path 18602" d="M304.5,96h10.98v1.372H304.5Zm0,0" transform="translate(-278.424 -87.765)" fill="#fa4c9a"></path><path id="Path_18603" data-name="Path 18603" d="M258.9,160a2.175,2.175,0,0,0-1.441.549l-5.986,5.277V160H250.1v6.862h.2l-3.9,3.445a4.8,4.8,0,0,0-4.529,4.79v1.211a1.784,1.784,0,0,1-.993,1.606.686.686,0,0,0,.307,1.3h4.8a4.8,4.8,0,0,0,4.79-4.529l9.762-11.063A2.18,2.18,0,0,0,258.9,160Zm-12.917,17.842h-3.138a3.165,3.165,0,0,0,.393-1.534V175.1a3.436,3.436,0,0,1,3.157-3.42l3.008,3.008a3.435,3.435,0,0,1-3.42,3.157Zm13.523-15.128-9.436,10.695-2.4-2.4,10.695-9.437a.808.808,0,0,1,1.14,1.14Zm0,0" transform="translate(-219.907 -146.275)" fill="#fa4c9a"></path><path id="Path_18604" data-name="Path 18604" d="M1.186,330.293h15.1a.686.686,0,0,0,.686-.686v-5.49a.686.686,0,0,0-.686-.686h-4.8V320H10.107v3.431H1.186a.686.686,0,0,0-.686.686v5.49A.686.686,0,0,0,1.186,330.293Zm.686-5.49H15.6v4.117H1.872Zm0,0" transform="translate(-0.5 -292.551)" fill="#fa4c9a"></path><path id="Path_18605" data-name="Path 18605" d="M32.5,392h3.431v1.372H32.5Zm0,0" transform="translate(-29.755 -358.375)" fill="#fa4c9a"></path><path id="Path_18606" data-name="Path 18606" d="M88.5,392h6.176v1.372H88.5Zm0,0" transform="translate(-80.952 -358.375)" fill="#fa4c9a"></path><path id="Path_18607" data-name="Path 18607" d="M1.186,38.862H8.048a.686.686,0,0,0,.686-.686v-5.49A.686.686,0,0,0,8.048,32H1.186a.686.686,0,0,0-.686.686v5.49A.686.686,0,0,0,1.186,38.862Zm.686-5.49h5.49V37.49H1.872Zm0,0" transform="translate(-0.5 -29.255)" fill="#fa4c9a"></path><path id="Path_18608" data-name="Path 18608" d="M32.5,64h2.745v1.372H32.5Zm0,0" transform="translate(-29.755 -58.51)" fill="#fa4c9a"></path></g></g></svg>