<svg xmlns="http://www.w3.org/2000/svg" width="501" height="173" viewBox="0 0 501 173" fill="none"><path d="M86.273 0L0 86.273L26.598 112.871L139.443 0H86.273ZM86.2212 79.3539L39.8495 126.122L86.1953 172.537H139.59L93.1144 125.95L139.607 79.3625H86.2212V79.3539Z" fill="#4DC4FA"></path><path d="M66.3154 152.842L92.9463 126.211L139.55 172.482H86.2886L66.3154 152.842Z" fill="#00559D"></path><path d="M178.841 128V45.8182H222.982V48.3864H181.409V85.625H219.129V88.1932H181.409V128H178.841ZM245.584 45.8182V128H243.015V45.8182H245.584ZM307.21 107.776V66.3636H309.778V128H307.21V118.209H306.889C305.444 121.419 303.063 123.987 299.746 125.913C296.456 127.839 292.684 128.803 288.43 128.803C284.31 128.803 280.672 127.906 277.515 126.114C274.359 124.322 271.884 121.847 270.092 118.69C268.299 115.534 267.403 111.895 267.403 107.776V66.3636H269.971V107.776C269.971 113.233 271.683 117.674 275.108 121.098C278.532 124.522 282.973 126.234 288.43 126.234C292.068 126.234 295.292 125.445 298.101 123.867C300.937 122.288 303.157 120.108 304.762 117.326C306.394 114.544 307.21 111.36 307.21 107.776ZM350.889 66.3636V68.9318H326.491V66.3636H350.889ZM335.48 51.5966H338.048V114.999C338.048 117.406 338.583 119.48 339.653 121.218C340.723 122.931 342.141 124.255 343.907 125.191C345.672 126.101 347.572 126.555 349.605 126.555C350.381 126.555 351.09 126.489 351.732 126.355C352.401 126.221 353.083 126.02 353.778 125.753L354.581 128.161C353.778 128.455 352.989 128.682 352.213 128.843C351.437 129.03 350.568 129.124 349.605 129.124C347.09 129.124 344.749 128.548 342.583 127.398C340.442 126.248 338.717 124.616 337.406 122.502C336.122 120.389 335.48 117.888 335.48 114.999V51.5966ZM390.174 66.3636V68.9318H365.776V66.3636H390.174ZM374.765 51.5966H377.333V114.999C377.333 117.406 377.868 119.48 378.938 121.218C380.008 122.931 381.426 124.255 383.192 125.191C384.958 126.101 386.857 126.555 388.89 126.555C389.666 126.555 390.375 126.489 391.017 126.355C391.686 126.221 392.368 126.02 393.063 125.753L393.866 128.161C393.063 128.455 392.274 128.682 391.498 128.843C390.723 129.03 389.853 129.124 388.89 129.124C386.375 129.124 384.035 128.548 381.868 127.398C379.728 126.248 378.002 124.616 376.691 122.502C375.407 120.389 374.765 117.888 374.765 114.999V51.5966ZM432.65 129.284C427.272 129.284 422.564 127.88 418.525 125.071C414.512 122.262 411.395 118.45 409.175 113.634C406.954 108.819 405.844 103.388 405.844 97.3423C405.844 91.2964 406.954 85.8658 409.175 81.0504C411.422 76.2351 414.472 72.4229 418.324 69.614C422.176 66.805 426.523 65.4006 431.365 65.4006C434.95 65.4006 438.267 66.163 441.317 67.6879C444.394 69.2127 447.069 71.3261 449.343 74.0281C451.617 76.73 453.382 79.8466 454.64 83.3778C455.924 86.8823 456.566 90.6276 456.566 94.6136V97.1818H407.128V94.6136H453.998C453.998 89.6645 452.981 85.1836 450.948 81.1708C448.915 77.1313 446.186 73.921 442.762 71.5401C439.337 69.1592 435.539 67.9688 431.365 67.9688C427.139 67.9688 423.313 69.2261 419.889 71.7408C416.465 74.2554 413.723 77.6797 411.663 82.0135C409.603 86.3473 408.519 91.2429 408.412 96.7003V97.0213C408.412 102.398 409.349 107.348 411.221 111.869C413.121 116.363 415.876 119.961 419.488 122.663C423.099 125.365 427.486 126.716 432.65 126.716C436.448 126.716 439.632 126.047 442.2 124.71C444.795 123.372 446.868 121.834 448.42 120.095C449.998 118.356 451.162 116.871 451.911 115.641L453.998 117.085C453.088 118.637 451.724 120.362 449.904 122.262C448.085 124.161 445.758 125.806 442.922 127.197C440.087 128.589 436.662 129.284 432.65 129.284ZM474.754 128V66.3636H477.322V76.1548H477.643C479.087 72.9446 481.455 70.3764 484.745 68.4503C488.063 66.5241 491.848 65.5611 496.102 65.5611C496.423 65.5611 496.637 65.5611 496.744 65.5611C496.851 65.5611 497.065 65.5611 497.386 65.5611V68.1293C497.065 68.1293 496.851 68.1293 496.744 68.1293C496.637 68.1293 496.423 68.1293 496.102 68.1293C492.463 68.1293 489.226 68.9184 486.391 70.4968C483.582 72.0752 481.361 74.2554 479.729 77.0376C478.124 79.8198 477.322 83.0033 477.322 86.5881V128H474.754Z" fill="#1A1A1A"></path></svg>