<svg xmlns="http://www.w3.org/2000/svg" width="102" height="54" viewBox="0 0 102 54" fill="none"><path d="M36.0071 28.125C36.0071 23.2842 38.7936 19.1039 42.8444 17.0703C39.2283 13.6836 34.5821 13.5 33.7566 13.5C31.5622 13.5 29.9964 14.0944 28.4832 14.6689C27.0174 15.226 25.6328 15.7511 23.6296 15.7511C21.6264 15.7511 20.2419 15.226 18.776 14.6689C17.2629 14.0944 15.697 13.5 13.5026 13.5C12.1203 13.5 0 13.9417 0 29.2511C0 41.77 8.54354 54 13.5026 54C16.5388 54 18.2848 53.2903 19.8265 52.6641C21.0309 52.1752 22.0726 51.7522 23.6296 51.7522C25.1867 51.7522 26.2284 52.1752 27.4327 52.6652C28.9744 53.2903 30.7205 54 33.7555 54C37.2298 54 42.1772 47.9902 45 40.091C39.6713 38.7106 36.0071 33.8843 36.0071 28.125Z" fill="#1A1A1A"></path><path d="M22.5051 13.5C29.0968 12.15 33.8217 6.71651 33.7559 0C27.1642 1.35 22.4393 6.78349 22.5051 13.5Z" fill="#1A1A1A"></path><path opacity="0.1" d="M13.5026 14.0625C15.697 14.0625 17.2629 14.6569 18.776 15.2314C20.2419 15.7885 21.6264 16.3136 23.6296 16.3136C25.6328 16.3136 27.0174 15.7885 28.4832 15.2314C29.9964 14.6569 31.5622 14.0625 33.7566 14.0625C34.5523 14.0625 38.8906 14.2625 42.4419 17.308C42.5787 17.2327 42.7045 17.1405 42.8444 17.0703C39.2283 13.6836 34.5821 13.5 33.7566 13.5C31.5622 13.5 29.9964 14.0944 28.4832 14.6689C27.0174 15.226 25.6328 15.7511 23.6296 15.7511C21.6264 15.7511 20.2419 15.226 18.776 14.6689C17.2629 14.0944 15.697 13.5 13.5026 13.5C12.1203 13.5 0 13.9417 0 29.2511C0 29.3544 0.0116749 29.4568 0.0127743 29.56C0.153426 14.5135 12.1284 14.0625 13.5026 14.0625Z" fill="white"></path><path opacity="0.2" d="M33.7555 53.4375C30.7205 53.4375 28.9744 52.7278 27.4327 52.1027C26.2284 51.6127 25.1867 51.1897 23.6296 51.1897C22.0726 51.1897 21.0309 51.6127 19.8265 52.1016C18.2848 52.7278 16.5388 53.4375 13.5026 53.4375C8.58448 53.4375 0.151779 41.4075 0.0127738 28.9975C0.0119496 29.0863 0 29.1611 0 29.2511C0 41.77 8.54354 54 13.5026 54C16.5388 54 18.2848 53.2903 19.8265 52.6641C21.0309 52.1752 22.0726 51.7522 23.6296 51.7522C25.1867 51.7522 26.2284 52.1752 27.4327 52.6652C28.9744 53.2903 30.7205 54 33.7555 54C37.2298 54 42.1772 47.9902 45 40.091C44.9346 40.0741 44.8756 40.0428 44.8106 40.0248C41.9497 47.6753 37.1559 53.4375 33.7555 53.4375Z" fill="#9B9B9B"></path><path opacity="0.2" d="M33.7038 0.994922C33.2394 7.13999 28.6845 11.6463 22.5119 12.9305C22.5057 13.1252 22.5031 13.3029 22.505 13.5C28.8998 12.1903 33.538 7.02548 33.7494 0.586533C33.7298 0.691736 33.7372 0.869018 33.7038 0.994922Z" fill="#9B9B9B"></path><path opacity="0.1" d="M22.512 12.902C22.5381 12.7553 22.5707 12.3474 22.6029 12.1008C22.6263 11.7909 22.66 11.4862 22.7036 11.1869C23.5259 5.54911 27.8862 1.80622 33.7495 0.586533C33.7557 0.3918 33.7579 0.197067 33.756 0C27.3592 1.30998 22.7206 6.46004 22.512 12.902Z" fill="white"></path><path d="M36.0071 28.125C36.0071 23.2841 38.7936 19.1039 42.8444 17.0703C39.2283 13.6836 34.5821 13.5 33.7566 13.5C31.5622 13.5 29.9964 14.0944 28.4832 14.6689C27.0174 15.226 25.6328 15.7511 23.6296 15.7511C21.6264 15.7511 20.2419 15.226 18.776 14.6689C17.2629 14.0944 15.697 13.5 13.5026 13.5C12.1203 13.5 0 13.9416 0 29.2511C0 41.77 8.54354 54 13.5026 54C16.5388 54 18.2848 53.2903 19.8265 52.6641C21.0309 52.1752 22.0726 51.7522 23.6296 51.7522C25.1867 51.7522 26.2284 52.1752 27.4327 52.6652C28.9744 53.2903 30.7205 54 33.7555 54C37.2298 54 42.1772 47.9902 45 40.091C39.6713 38.7106 36.0071 33.8843 36.0071 28.125ZM33.7559 0C27.1642 1.34995 22.4393 6.78351 22.5051 13.5C29.0968 12.1499 33.8217 6.71649 33.7559 0Z" fill="url(#paint0_linear_34_33)"></path><path d="M71.2663 14.5565C69.2808 14.5565 67.5872 14.9653 65.9521 15.7828C61.689 17.8852 59.2363 22.3818 59.2363 27.988C59.2363 33.5942 61.6307 37.974 65.8937 39.9595C67.0616 40.4851 68.2296 40.7771 69.9815 41.0107C70.8575 41.0691 71.6751 41.1275 72.551 41.0107C74.303 40.7771 75.4709 40.4851 76.6389 39.9595C80.9019 37.9156 83.2962 33.5942 83.2962 27.988C83.2962 22.3818 80.8435 17.8852 76.5805 15.7828C74.8869 14.9653 73.1934 14.5565 71.2663 14.5565ZM72.9598 18.5275C75.5293 19.2283 77.3397 21.5058 78.0988 24.8929C78.6244 27.2288 78.4492 29.9735 77.7484 32.1342C76.6389 35.4629 74.2446 37.39 71.2663 37.3316C68.3464 37.39 65.8937 35.4629 64.7841 32.1342C64.0833 29.9735 63.9082 27.2872 64.4337 24.8929C65.1345 21.5058 67.0032 19.2283 69.5727 18.5275C70.6823 18.2939 71.8503 18.2939 72.9598 18.5275Z" fill="#252525"></path><path d="M54.2724 14.5565C52.8708 14.5565 51.7029 15.7244 51.7029 17.126C51.7029 18.5275 52.8708 19.6955 54.2724 19.6955C55.6739 19.6955 56.8419 18.5275 56.8419 17.126C56.8419 15.7244 55.6739 14.5565 54.2724 14.5565ZM51.8781 22.3234V41.0691H56.6667V22.3234H51.8781Z" fill="#252525"></path><path d="M90.187 41.0691C88.1431 40.7187 86.1576 40.4267 84.5225 39.4924C84.5225 39.4924 85.5152 35.6965 85.5736 35.6381C88.2599 36.5725 92.0558 37.7988 94.5669 36.6309C95.9684 35.9301 96.6108 34.6453 96.4356 33.1854C96.202 31.4919 95.0341 30.5575 91.8806 29.3895C88.3767 28.0464 86.2744 26.4696 85.4568 24.3673C85.048 23.3162 84.9312 22.0314 85.1064 20.8635C85.632 17.6516 88.1431 15.4325 91.939 14.7317C93.0485 14.5565 95.4428 14.5565 96.6108 14.7317C98.3043 15.0237 100.231 15.6661 100.231 15.8996C100.231 16.0164 99.2387 19.4619 99.1803 19.5787C97.4868 18.9363 95.6764 18.4692 94.0413 18.4108C91.8222 18.3524 89.3695 19.6955 89.7783 22.0314C90.0703 23.4914 91.0046 24.1921 94.4501 25.5937C97.0196 26.6448 98.1875 27.3456 99.2387 28.3968C100.699 29.8567 101.166 31.5503 101.166 33.2438C101.166 34.6453 101.049 35.2877 100.523 36.3973C99.2971 39.0252 96.8444 40.5435 93.1069 40.9523C92.4062 41.0691 90.771 41.1275 90.187 41.0691Z" fill="#252525"></path><defs><linearGradient id="paint0_linear_34_33" x1="3.14992" y1="17.6446" x2="46.2789" y2="37.756" gradientUnits="userSpaceOnUse"><stop stop-color="white" stop-opacity="0.2"></stop><stop offset="1" stop-color="white" stop-opacity="0"></stop></linearGradient></defs></svg>