<svg xmlns="http://www.w3.org/2000/svg" width="603" height="674" viewBox="0 0 603 674" fill="none"><path d="M281.5 299.8C309.225 299.8 331.7 277.325 331.7 249.6C331.7 221.875 309.225 199.4 281.5 199.4C253.775 199.4 231.3 221.875 231.3 249.6C231.3 277.325 253.775 299.8 281.5 299.8Z" fill="#00D8FF"></path><path d="M281.5 364.6C211 364.6 149.4 356.3 103.3 340.5C73.4 330.3 48 316.7 29.9 301.2C10.7 284.8 0.5 266.9 0.5 249.6C0.5 216.4 36.9 183.9 98 162.7C148 145.3 213.2 135.6 281.4 135.6C348.4 135.6 412.7 145 462.4 162.2C491.5 172.2 516 185.2 533.4 199.6C552.3 215.4 562.3 232.7 562.3 249.6C562.3 284.1 521.6 319 456 340.7C409.6 356.1 347.6 364.6 281.5 364.6ZM281.5 159.6C216.8 159.6 152.8 169 106 185.3C49.8 204.9 24.6 231.7 24.6 249.6C24.6 268.2 51.7 297.5 111.1 317.8C154.7 332.7 213.7 340.6 281.5 340.6C345.1 340.6 404.4 332.6 448.5 317.9C510.2 297.4 538.4 268.1 538.4 249.6C538.4 240.1 531.2 228.9 518.1 218C503 205.4 481 193.9 454.7 184.8C407.4 168.6 345.9 159.6 281.5 159.6Z" fill="#00D8FF"></path><path d="M167.6 499.8C157.4 499.8 148.4 497.6 140.8 493.2C112.1 476.6 102.1 428.8 114.2 365.3C124.1 313.2 148.3 252 182.4 192.9C215.9 134.9 256.1 83.9 295.8 49.4C319 29.2 342.5 14.4 363.7 6.6C386.8 -1.9 406.8 -1.9 421.4 6.5C451.3 23.7 461.2 76.5 447.2 144.1C437.3 192.1 413.7 250 380.7 307.3C345.5 368.3 307.5 417.5 270.8 449.6C247 470.4 222.5 485.6 200.1 493.5C188.4 497.7 177.4 499.8 167.6 499.8ZM192.7 198.9L203.1 204.9C170.8 260.9 146.9 321 137.7 369.8C126.6 428.3 137.3 463.5 152.7 472.4C156.5 474.6 161.5 475.8 167.6 475.8C187.5 475.8 218.8 463.2 255 431.6C289.7 401.3 326 354.1 359.9 295.4C391.7 240.3 414.3 184.9 423.7 139.4C436.8 75.7 425.5 36.7 409.4 27.4C401.2 22.7 387.9 23.3 371.9 29.2C353.4 36 332.5 49.3 311.5 67.6C273.8 100.4 235.3 149.2 203.1 205L192.7 198.9Z" fill="#00D8FF"></path><path d="M395.4 500.1C368.2 500.1 333.7 483.7 297.7 452.7C257.5 418.1 216.6 366.6 182.4 307.5C148.8 249.5 124.8 189.2 114.7 137.5C108.8 107.3 107.7 79.6 111.5 57.3C115.7 33 125.6 15.7 140.3 7.2C170.1 -10.1 220.8 7.7 272.4 53.6C309 86.1 347.4 135.5 380.5 192.7C415.8 253.7 439.5 311.2 448.9 359C455 390 456 418.8 451.7 442.2C447.1 467.1 436.7 484.8 421.7 493.5C414.2 497.9 405.3 500.1 395.4 500.1ZM203.2 295.5C235.6 351.5 275.8 402.2 313.4 434.5C358.5 473.3 394.3 481.7 409.8 472.7C425.9 463.4 437.7 425.3 425.5 363.7C416.5 318.5 393.8 263.5 359.8 204.8C327.9 149.7 291.2 102.4 256.5 71.6C207.9 28.4 168.5 18.7 152.4 28C144.2 32.7 138.1 44.6 135.2 61.4C131.9 80.8 132.9 105.6 138.3 132.9C147.9 182 170.9 239.7 203.2 295.5Z" fill="#00D8FF"></path><path d="M9.80682 650V577.273H34.3807C40.0625 577.273 44.7263 578.243 48.3722 580.185C52.018 582.102 54.7169 584.742 56.4688 588.104C58.2206 591.465 59.0966 595.289 59.0966 599.574C59.0966 603.859 58.2206 607.659 56.4688 610.973C54.7169 614.287 52.0298 616.892 48.4077 618.786C44.7855 620.656 40.1572 621.591 34.5227 621.591H14.6364V613.636H34.2386C38.1212 613.636 41.2462 613.068 43.6136 611.932C46.0047 610.795 47.733 609.186 48.7983 607.102C49.8873 604.995 50.4318 602.486 50.4318 599.574C50.4318 596.662 49.8873 594.117 48.7983 591.939C47.7093 589.761 45.9692 588.08 43.5781 586.896C41.187 585.689 38.0265 585.085 34.0966 585.085H18.6136V650H9.80682ZM44.0398 617.33L61.9375 650H51.7102L34.0966 617.33H44.0398ZM94.9187 651.136C89.663 651.136 85.1294 649.976 81.3178 647.656C77.5299 645.312 74.6062 642.045 72.5465 637.855C70.5105 633.641 69.4925 628.741 69.4925 623.153C69.4925 617.566 70.5105 612.642 72.5465 608.381C74.6062 604.096 77.4708 600.758 81.1403 598.366C84.8335 595.952 89.1422 594.744 94.0664 594.744C96.9073 594.744 99.7127 595.218 102.483 596.165C105.252 597.112 107.774 598.651 110.047 600.781C112.319 602.888 114.13 605.682 115.48 609.162C116.829 612.642 117.504 616.927 117.504 622.017V625.568H75.4585V618.324H108.981C108.981 615.246 108.366 612.5 107.135 610.085C105.927 607.67 104.199 605.765 101.95 604.368C99.7246 602.971 97.0967 602.273 94.0664 602.273C90.7283 602.273 87.8401 603.101 85.4016 604.759C82.9869 606.392 81.1284 608.523 79.8263 611.151C78.5243 613.778 77.8732 616.596 77.8732 619.602V624.432C77.8732 628.551 78.5835 632.043 80.0039 634.908C81.448 637.749 83.4485 639.915 86.0053 641.406C88.5621 642.874 91.5333 643.608 94.9187 643.608C97.1204 643.608 99.109 643.3 100.885 642.685C102.684 642.045 104.234 641.098 105.537 639.844C106.839 638.565 107.845 636.979 108.555 635.085L116.652 637.358C115.799 640.104 114.367 642.519 112.355 644.602C110.342 646.662 107.857 648.272 104.897 649.432C101.938 650.568 98.6119 651.136 94.9187 651.136ZM146.304 651.278C142.847 651.278 139.71 650.627 136.893 649.325C134.076 648 131.839 646.094 130.181 643.608C128.524 641.098 127.696 638.068 127.696 634.517C127.696 631.392 128.311 628.859 129.542 626.918C130.773 624.953 132.419 623.414 134.478 622.301C136.538 621.188 138.811 620.36 141.297 619.815C143.806 619.247 146.327 618.797 148.86 618.466C152.175 618.04 154.862 617.72 156.922 617.507C159.005 617.27 160.52 616.88 161.467 616.335C162.438 615.791 162.923 614.844 162.923 613.494V613.21C162.923 609.706 161.964 606.984 160.047 605.043C158.153 603.101 155.276 602.131 151.417 602.131C147.416 602.131 144.279 603.007 142.007 604.759C139.734 606.51 138.136 608.381 137.213 610.369L129.258 607.528C130.679 604.214 132.573 601.634 134.94 599.787C137.331 597.917 139.935 596.615 142.752 595.881C145.593 595.123 148.387 594.744 151.133 594.744C152.885 594.744 154.897 594.957 157.17 595.384C159.467 595.786 161.68 596.626 163.811 597.905C165.965 599.183 167.752 601.113 169.173 603.693C170.593 606.274 171.304 609.73 171.304 614.062V650H162.923V642.614H162.497C161.929 643.797 160.982 645.064 159.656 646.413C158.33 647.763 156.566 648.911 154.365 649.858C152.163 650.805 149.476 651.278 146.304 651.278ZM147.582 643.75C150.896 643.75 153.69 643.099 155.963 641.797C158.259 640.495 159.987 638.814 161.147 636.754C162.331 634.695 162.923 632.528 162.923 630.256V622.585C162.568 623.011 161.787 623.402 160.579 623.757C159.395 624.089 158.022 624.384 156.46 624.645C154.921 624.882 153.418 625.095 151.95 625.284C150.506 625.45 149.334 625.592 148.434 625.71C146.256 625.994 144.22 626.456 142.326 627.095C140.456 627.711 138.941 628.646 137.781 629.901C136.645 631.132 136.076 632.812 136.076 634.943C136.076 637.855 137.154 640.057 139.308 641.548C141.486 643.016 144.244 643.75 147.582 643.75ZM208.759 651.136C203.646 651.136 199.242 649.929 195.549 647.514C191.856 645.099 189.015 641.773 187.026 637.536C185.038 633.298 184.043 628.456 184.043 623.011C184.043 617.472 185.061 612.583 187.097 608.345C189.157 604.084 192.022 600.758 195.691 598.366C199.384 595.952 203.693 594.744 208.617 594.744C212.452 594.744 215.909 595.455 218.987 596.875C222.064 598.295 224.585 600.284 226.55 602.841C228.515 605.398 229.735 608.381 230.208 611.79H221.827C221.188 609.304 219.768 607.102 217.566 605.185C215.388 603.243 212.452 602.273 208.759 602.273C205.492 602.273 202.628 603.125 200.165 604.83C197.727 606.51 195.821 608.89 194.448 611.967C193.099 615.021 192.424 618.608 192.424 622.727C192.424 626.941 193.087 630.611 194.413 633.736C195.762 636.861 197.656 639.287 200.094 641.016C202.557 642.744 205.445 643.608 208.759 643.608C210.937 643.608 212.914 643.229 214.69 642.472C216.465 641.714 217.969 640.625 219.2 639.205C220.431 637.784 221.307 636.08 221.827 634.091H230.208C229.735 637.311 228.563 640.211 226.692 642.791C224.846 645.348 222.396 647.384 219.342 648.899C216.311 650.391 212.784 651.136 208.759 651.136ZM266.181 595.455V602.557H237.914V595.455H266.181ZM246.153 582.386H254.533V634.375C254.533 636.742 254.877 638.518 255.563 639.702C256.273 640.862 257.173 641.643 258.262 642.045C259.375 642.424 260.547 642.614 261.778 642.614C262.701 642.614 263.459 642.566 264.05 642.472C264.642 642.353 265.116 642.259 265.471 642.188L267.175 649.716C266.607 649.929 265.814 650.142 264.796 650.355C263.778 650.592 262.488 650.71 260.925 650.71C258.558 650.71 256.238 650.201 253.965 649.183C251.716 648.165 249.846 646.615 248.354 644.531C246.887 642.448 246.153 639.82 246.153 636.648V582.386ZM365.719 577.273V650H357.197L317.566 592.898H316.856V650H308.049V577.273H316.572L356.344 634.517H357.055V577.273H365.719ZM398.257 651.278C394.8 651.278 391.663 650.627 388.846 649.325C386.029 648 383.792 646.094 382.135 643.608C380.477 641.098 379.649 638.068 379.649 634.517C379.649 631.392 380.264 628.859 381.495 626.918C382.726 624.953 384.372 623.414 386.431 622.301C388.491 621.188 390.764 620.36 393.25 619.815C395.759 619.247 398.28 618.797 400.814 618.466C404.128 618.04 406.815 617.72 408.875 617.507C410.958 617.27 412.473 616.88 413.42 616.335C414.391 615.791 414.876 614.844 414.876 613.494V613.21C414.876 609.706 413.917 606.984 412 605.043C410.106 603.101 407.229 602.131 403.37 602.131C399.369 602.131 396.233 603.007 393.96 604.759C391.687 606.51 390.089 608.381 389.166 610.369L381.211 607.528C382.632 604.214 384.526 601.634 386.893 599.787C389.284 597.917 391.888 596.615 394.706 595.881C397.547 595.123 400.34 594.744 403.086 594.744C404.838 594.744 406.85 594.957 409.123 595.384C411.42 595.786 413.633 596.626 415.764 597.905C417.918 599.183 419.706 601.113 421.126 603.693C422.547 606.274 423.257 609.73 423.257 614.062V650H414.876V642.614H414.45C413.882 643.797 412.935 645.064 411.609 646.413C410.283 647.763 408.52 648.911 406.318 649.858C404.116 650.805 401.429 651.278 398.257 651.278ZM399.535 643.75C402.85 643.75 405.643 643.099 407.916 641.797C410.212 640.495 411.94 638.814 413.1 636.754C414.284 634.695 414.876 632.528 414.876 630.256V622.585C414.521 623.011 413.74 623.402 412.532 623.757C411.349 624.089 409.975 624.384 408.413 624.645C406.874 624.882 405.371 625.095 403.903 625.284C402.459 625.45 401.287 625.592 400.387 625.71C398.209 625.994 396.173 626.456 394.279 627.095C392.409 627.711 390.894 628.646 389.734 629.901C388.598 631.132 388.029 632.812 388.029 634.943C388.029 637.855 389.107 640.057 391.261 641.548C393.439 643.016 396.197 643.75 399.535 643.75ZM462.275 595.455V602.557H434.008V595.455H462.275ZM442.246 582.386H450.627V634.375C450.627 636.742 450.97 638.518 451.657 639.702C452.367 640.862 453.267 641.643 454.356 642.045C455.469 642.424 456.64 642.614 457.871 642.614C458.795 642.614 459.552 642.566 460.144 642.472C460.736 642.353 461.21 642.259 461.565 642.188L463.269 649.716C462.701 649.929 461.908 650.142 460.89 650.355C459.872 650.592 458.582 650.71 457.019 650.71C454.652 650.71 452.332 650.201 450.059 649.183C447.81 648.165 445.94 646.615 444.448 644.531C442.98 642.448 442.246 639.82 442.246 636.648V582.386ZM474.881 650V595.455H483.262V650H474.881ZM479.143 586.364C477.509 586.364 476.101 585.807 474.917 584.695C473.757 583.582 473.177 582.244 473.177 580.682C473.177 579.119 473.757 577.782 474.917 576.669C476.101 575.556 477.509 575 479.143 575C480.776 575 482.173 575.556 483.333 576.669C484.517 577.782 485.109 579.119 485.109 580.682C485.109 582.244 484.517 583.582 483.333 584.695C482.173 585.807 480.776 586.364 479.143 586.364ZM543.214 595.455L523.044 650H514.521L494.35 595.455H503.441L518.498 638.92H519.066L534.123 595.455H543.214ZM575.192 651.136C569.936 651.136 565.403 649.976 561.591 647.656C557.803 645.312 554.88 642.045 552.82 637.855C550.784 633.641 549.766 628.741 549.766 623.153C549.766 617.566 550.784 612.642 552.82 608.381C554.88 604.096 557.744 600.758 561.414 598.366C565.107 595.952 569.416 594.744 574.34 594.744C577.181 594.744 579.986 595.218 582.756 596.165C585.526 597.112 588.047 598.651 590.32 600.781C592.593 602.888 594.404 605.682 595.753 609.162C597.103 612.642 597.777 616.927 597.777 622.017V625.568H555.732V618.324H589.255C589.255 615.246 588.639 612.5 587.408 610.085C586.201 607.67 584.472 605.765 582.223 604.368C579.998 602.971 577.37 602.273 574.34 602.273C571.002 602.273 568.114 603.101 565.675 604.759C563.26 606.392 561.402 608.523 560.1 611.151C558.798 613.778 558.147 616.596 558.147 619.602V624.432C558.147 628.551 558.857 632.043 560.277 634.908C561.721 637.749 563.722 639.915 566.279 641.406C568.836 642.874 571.807 643.608 575.192 643.608C577.394 643.608 579.382 643.3 581.158 642.685C582.957 642.045 584.508 641.098 585.81 639.844C587.112 638.565 588.118 636.979 588.828 635.085L596.925 637.358C596.073 640.104 594.641 642.519 592.628 644.602C590.616 646.662 588.13 648.272 585.171 649.432C582.212 650.568 578.885 651.136 575.192 651.136Z" fill="#00D8FF"></path></svg>